<svg width="14" height="14" viewBox="0 0 14 14" fill="none" xmlns="http://www.w3.org/2000/svg">
<path fill-rule="evenodd" clip-rule="evenodd" d="M1.72204 10.5019C0.945211 9.30629 0.569523 7.84334 0.757741 6.31983C0.960499 4.67864 1.78109 3.26309 2.95919 2.27507C4.15534 1.2719 5.72004 0.709471 7.3808 0.799106C9.13014 0.891986 10.7901 1.70573 11.9258 3.07139L11.9221 1.65396L11.929 1.57486C11.9657 1.36951 12.145 1.21344 12.361 1.21292C12.604 1.21235 12.8015 1.40888 12.8021 1.65188L12.8082 4.25395L12.8013 4.33331C12.7643 4.53927 12.5839 4.6955 12.3672 4.69499L9.89273 4.68916L9.81366 4.68189C9.60849 4.64415 9.45326 4.46413 9.45377 4.24813L9.46105 4.16905C9.49878 3.96388 9.6788 3.80866 9.8948 3.80917L11.3911 3.81222C10.4922 2.63352 9.15507 1.88958 7.71645 1.71173C7.71388 1.71146 7.71131 1.71117 7.70874 1.71085C7.62276 1.70036 7.53701 1.69192 7.45152 1.68548C6.70036 1.62945 5.92748 1.72755 5.17972 1.99803C2.34994 3.02168 0.891695 6.12969 1.92093 8.94017C2.21919 9.7546 2.69366 10.4548 3.28604 11.0138C3.9564 11.6464 4.77776 12.098 5.66562 12.3295C5.89704 12.3893 6.1351 12.4346 6.3789 12.4643C7.06688 12.5483 7.7406 12.5011 8.37465 12.3425C8.54014 12.301 8.70512 12.2514 8.86915 12.1935C10.753 11.5274 12.1964 9.85273 12.4565 7.74744C12.4863 7.50627 12.706 7.33492 12.9472 7.36471C13.1883 7.39451 13.3597 7.61417 13.3299 7.85534C12.9944 10.5712 10.967 12.6691 8.42747 13.2344C7.42364 13.4588 6.40814 13.4304 5.4577 13.1848C4.43813 12.9239 3.52877 12.4218 2.78556 11.7496C2.38284 11.3863 2.02406 10.9685 1.72204 10.5019Z" fill="#50585F"/>
</svg>
